<svg id="Capa_1" enable-background="new 0 0 512 512" height="512" viewBox="0 0 512 512" width="512" xmlns="http://www.w3.org/2000/svg"><g><path d="m482 385.335v-251.24l29.484-29.572-71.568-71.859-83.42 83.67h-326.496v269h-30v94h512v-94h-30zm-30-150.932-66.861 72.786-43.323-32.492 110.184-110.512zm-167 26.932v-30.8l110.328-110.659 29.286 29.286-111.841 112.173zm184.133-156.823-23.337 23.406-29.287-29.287 23.395-23.466zm-142.548 41.823-71.585 71.8v15.326l-57.363-33.255-137.637 110.286v-164.157zm-266.585 202.6 140.363-112.471 54.637 31.673v23.198h59l74.861 56.146 63.139-68.732v106.586h-392zm422 100.4h-452v-34h452z"/><path d="m90 176.335h30v30h-30z"/></g></svg>